<?xml version="1.0" encoding="UTF-8"?>
<svg xmlns="http://www.w3.org/2000/svg" viewBox="0 0 900 720" width="900" height="720">
  <rect width="900" height="720" fill="#f7f1e8"/>
  
    <g transform="translate(240 340) scale(1.7)">
    <ellipse cx="-32" cy="30" rx="11" ry="15" fill="#ffd8be" stroke="#3d332c" stroke-width="7" stroke-linecap="round" stroke-linejoin="round"/>
    <ellipse cx="32" cy="30" rx="11" ry="15" fill="#ffd8be" stroke="#3d332c" stroke-width="7" stroke-linecap="round" stroke-linejoin="round"/>
    <ellipse cx="-15" cy="62" rx="10" ry="14" fill="#ef7a4c" stroke="#3d332c" stroke-width="7" stroke-linecap="round" stroke-linejoin="round"/>
    <ellipse cx="15" cy="62" rx="10" ry="14" fill="#ef7a4c" stroke="#3d332c" stroke-width="7" stroke-linecap="round" stroke-linejoin="round"/>
    <ellipse cx="0" cy="28" rx="44" ry="34" fill="#ef7a4c" stroke="#3d332c" stroke-width="7" stroke-linecap="round" stroke-linejoin="round"/>
    <circle cx="0" cy="-32" r="40" fill="#ffd8be" stroke="#3d332c" stroke-width="7" stroke-linecap="round" stroke-linejoin="round"/>
    <path d="M-34 -40 C -22 -72, 22 -72, 34 -40" fill="#6a4e3d" stroke="#3d332c" stroke-width="7" stroke-linecap="round" stroke-linejoin="round"/>
    
    <ellipse cx="-13" cy="-34" rx="10" ry="12" fill="#3d332c"/>
    <ellipse cx="13" cy="-34" rx="10" ry="12" fill="#3d332c"/>
    <circle cx="-9" cy="-38" r="3.6" fill="#fff"/>
    <circle cx="17" cy="-38" r="3.6" fill="#fff"/>
    <circle cx="-15" cy="-31" r="1.4" fill="#fff"/>
    <circle cx="11" cy="-31" r="1.4" fill="#fff"/>
  
    <ellipse cx="-22" cy="-20" rx="8" ry="5" fill="#ff9b90"/>
    <ellipse cx="22" cy="-20" rx="8" ry="5" fill="#ff9b90"/>
    <path d="M-7 -16 Q 0 -8 7 -16" fill="none" stroke="#3d332c" stroke-width="4" stroke-linecap="round"/>
  </g>
    <g transform="translate(660 340) scale(1.7)">
    <ellipse cx="-32" cy="30" rx="11" ry="15" fill="#ffd8be" stroke="#3d332c" stroke-width="7" stroke-linecap="round" stroke-linejoin="round"/>
    <ellipse cx="32" cy="30" rx="11" ry="15" fill="#ffd8be" stroke="#3d332c" stroke-width="7" stroke-linecap="round" stroke-linejoin="round"/>
    <ellipse cx="-15" cy="62" rx="10" ry="14" fill="#ef7a4c" stroke="#3d332c" stroke-width="7" stroke-linecap="round" stroke-linejoin="round"/>
    <ellipse cx="15" cy="62" rx="10" ry="14" fill="#ef7a4c" stroke="#3d332c" stroke-width="7" stroke-linecap="round" stroke-linejoin="round"/>
    <ellipse cx="0" cy="28" rx="44" ry="34" fill="#ef7a4c" stroke="#3d332c" stroke-width="7" stroke-linecap="round" stroke-linejoin="round"/>
    <circle cx="0" cy="-32" r="40" fill="#ffd8be" stroke="#3d332c" stroke-width="7" stroke-linecap="round" stroke-linejoin="round"/>
    <path d="M-34 -40 C -22 -72, 22 -72, 34 -40" fill="#6a4e3d" stroke="#3d332c" stroke-width="7" stroke-linecap="round" stroke-linejoin="round"/>
    
    <ellipse cx="-13" cy="-34" rx="10" ry="12" fill="#3d332c"/>
    <ellipse cx="13" cy="-34" rx="10" ry="12" fill="#3d332c"/>
    <circle cx="-9" cy="-38" r="3.6" fill="#fff"/>
    <circle cx="17" cy="-38" r="3.6" fill="#fff"/>
    <circle cx="-15" cy="-31" r="1.4" fill="#fff"/>
    <circle cx="11" cy="-31" r="1.4" fill="#fff"/>
  
    <ellipse cx="-22" cy="-20" rx="8" ry="5" fill="#ff9b90"/>
    <ellipse cx="22" cy="-20" rx="8" ry="5" fill="#ff9b90"/>
    <path d="M-7 -16 Q 0 -8 7 -16" fill="none" stroke="#3d332c" stroke-width="4" stroke-linecap="round"/>
  </g>
    <g transform="translate(450 500) scale(1.7)">
    <ellipse cx="0" cy="36" rx="46" ry="30" fill="#ffd39a" stroke="#3d332c" stroke-width="7" stroke-linecap="round" stroke-linejoin="round"/>
    <circle cx="0" cy="-6" r="34" fill="#ffd39a" stroke="#3d332c" stroke-width="7" stroke-linecap="round" stroke-linejoin="round"/>
    <ellipse cx="-28" cy="-28" rx="13" ry="16" fill="#e8a66a" stroke="#3d332c" stroke-width="7" stroke-linecap="round" stroke-linejoin="round"/>
    <ellipse cx="28" cy="-28" rx="13" ry="16" fill="#e8a66a" stroke="#3d332c" stroke-width="7" stroke-linecap="round" stroke-linejoin="round"/>
    
    <ellipse cx="-12" cy="-10" rx="10" ry="12" fill="#3d332c"/>
    <ellipse cx="12" cy="-10" rx="10" ry="12" fill="#3d332c"/>
    <circle cx="-9" cy="-14" r="3.6" fill="#fff"/>
    <circle cx="17" cy="-14" r="3.6" fill="#fff"/>
    <circle cx="-15" cy="-7" r="1.4" fill="#fff"/>
    <circle cx="11" cy="-7" r="1.4" fill="#fff"/>
  
    <ellipse cx="0" cy="4" rx="7" ry="5" fill="#3d332c"/>
    <circle cx="-3" cy="2" r="1.6" fill="#fff"/>
    <path d="M-8 12 Q 0 20 8 12" fill="none" stroke="#3d332c" stroke-width="3.5" stroke-linecap="round"/>
    <path d="M42 20 Q 60 6 52 34" fill="none" stroke="#3d332c" stroke-width="7" stroke-linecap="round" stroke-linejoin="round"/>
  </g>
  
</svg>
